<?xml version="1.0" encoding="UTF-8"?>
<svg id="Layer_2" data-name="Layer 2" xmlns="http://www.w3.org/2000/svg" viewBox="0 0 1446.44 169.62">
  <defs>
    <style>
      .cls-1 { fill: currentColor; }
    </style>
  </defs>
  <g id="Layer_1-2" data-name="Layer 1">
    <g>
      <path class="cls-1" d="M76.51,167.12c-21.96,0-39.46-4.77-52.49-14.31-13.03-9.54-20.14-22.86-21.33-39.97h38.1c1.45,8.29,5.29,14.48,11.51,18.55,6.22,4.08,14.75,6.12,25.6,6.12,9.79,0,17.1-1.48,21.93-4.44,4.83-2.96,7.24-7.4,7.24-13.32,0-4.6-1.49-8.19-4.47-10.76-2.98-2.57-7.91-4.57-14.79-6.02l-33.94-7.11c-15.35-3.29-26.73-8.62-34.13-15.99-7.41-7.37-11.11-17.04-11.11-29.02,0-15.13,5.79-26.97,17.37-35.53C37.57,6.78,53.35,2.5,73.33,2.5s36.32,4.48,48.62,13.42c12.3,8.95,19.12,21.45,20.44,37.5h-38.1c-3.71-15-14.75-22.5-33.14-22.5-8.07,0-14.42,1.42-19.05,4.24-4.63,2.83-6.95,6.88-6.95,12.14,0,7.9,5.69,13.03,17.07,15.4l35.52,7.3c16.01,3.29,27.65,8.69,34.93,16.19,7.28,7.5,10.92,17.7,10.92,30.59,0,15.92-5.79,28.3-17.37,37.11-11.58,8.82-28.15,13.23-49.71,13.23Z"/>
      <path class="cls-1" d="M155.09,164.75V4.87h37.31v159.88h-37.31Z"/>
      <path class="cls-1" d="M250.75,164.75h-37.31V4.87h117.09v32.37h-79.78v30.79h72.64v32.37h-72.64v64.35Z"/>
      <path class="cls-1" d="M305.92,164.75L373.6,4.87h37.71l66.88,159.88h-38.3l-15.28-36.32h-66.09l-15.48,36.32h-37.11ZM370.22,97.64h44.45l-21.63-52.9h-.99l-21.83,52.9Z"/>
      <path class="cls-1" d="M531.37,164.75h-36.52V37.24h-50.41V4.87h137.33v32.37h-50.41v127.51Z"/>
      <path class="cls-1" d="M634.17,164.75V4.87h84.15c9.79,0,18.36,1.71,25.7,5.13,7.34,3.42,13.1,8.19,17.27,14.31,4.17,6.12,6.25,13.19,6.25,21.22s-1.92,14.25-5.75,19.84c-3.84,5.6-9.33,9.9-16.47,12.93v.79c6.35,1.84,11.77,4.71,16.27,8.59,4.5,3.88,7.94,8.46,10.32,13.72,2.38,5.26,3.57,11.12,3.57,17.57,0,9.08-2.25,17.04-6.75,23.88-4.5,6.84-10.75,12.21-18.75,16.09-8.01,3.88-17.37,5.82-28.08,5.82h-87.72ZM671.48,67.24h41.48c5.69,0,9.99-1.28,12.9-3.85,2.91-2.57,4.37-6.28,4.37-11.15s-1.46-8.75-4.37-11.25c-2.91-2.5-7.21-3.75-12.9-3.75h-41.48v30ZM671.48,132.38h44.06c7.41,0,13.03-1.58,16.87-4.74,3.84-3.16,5.76-7.63,5.76-13.42s-1.92-10.2-5.76-13.23c-3.84-3.02-9.4-4.54-16.67-4.54h-44.26v35.92Z"/>
      <path class="cls-1" d="M786.98,164.75V4.87h37.31v60.8h74.22V4.87h37.31v159.88h-37.31v-66.72h-74.22v66.72h-37.31Z"/>
      <path class="cls-1" d="M940.98,164.75L1008.66,4.87h37.71l66.88,159.88h-38.3l-15.28-36.32h-66.09l-15.48,36.32h-37.11ZM1005.28,97.64h44.45l-21.63-52.9h-.99l-21.83,52.9Z"/>
      <path class="cls-1" d="M1166.43,164.75h-36.52V37.24h-50.41V4.87h137.33v32.37h-50.41v127.51Z"/>
      <path class="cls-1" d="M1226.76,164.75V4.87h37.31v159.88h-37.31Z"/>
      <path class="cls-1" d="M1270.42,164.75L1338.09,4.87h37.71l66.88,159.88h-38.3l-15.28-36.32h-66.09l-15.48,36.32h-37.11ZM1334.72,97.64h44.45l-21.63-52.9h-.99l-21.83,52.9Z"/>
    </g>
  </g>
</svg>
